<svg xmlns="http://www.w3.org/2000/svg" width="1200" height="630" viewBox="0 0 1200 630">
  <defs>
    <radialGradient id="g1" cx="22%" cy="30%" r="55%"><stop offset="0" stop-color="#c5f467" stop-opacity="0.20"/><stop offset="1" stop-color="#c5f467" stop-opacity="0"/></radialGradient>
    <radialGradient id="g2" cx="85%" cy="15%" r="50%"><stop offset="0" stop-color="#5ee6d0" stop-opacity="0.16"/><stop offset="1" stop-color="#5ee6d0" stop-opacity="0"/></radialGradient>
    <linearGradient id="hl" x1="0" x2="1" y1="0" y2="0"><stop offset="0.05" stop-color="#c5f467"/><stop offset="0.95" stop-color="#5ee6d0"/></linearGradient>
    <pattern id="dots" width="24" height="24" patternUnits="userSpaceOnUse"><circle cx="2" cy="2" r="1.1" fill="#ecebe4" fill-opacity="0.10"/></pattern>
  </defs>
  <rect width="1200" height="630" fill="#0a0c0b"/>
  <rect width="1200" height="630" fill="url(#dots)"/>
  <rect width="1200" height="630" fill="url(#g1)"/>
  <rect width="1200" height="630" fill="url(#g2)"/>
  <g transform="translate(72 64) scale(1.75)">
    <rect width="32" height="32" rx="8" fill="#151916"/>
    <path d="M7.5 16H13c3.2 0 3.8-7 7.5-7H23M13 16h10M13 16c3.2 0 3.8 7 7.5 7H23" fill="none" stroke="#c5f467" stroke-width="2.4" stroke-linecap="round" stroke-linejoin="round"/>
    <circle cx="25" cy="9" r="2.1" fill="#c5f467"/><circle cx="25" cy="16" r="2.1" fill="#5ee6d0"/><circle cx="25" cy="23" r="2.1" fill="#c5f467"/>
  </g>
  <text x="146" y="108" font-family="ui-monospace, 'SF Mono', Menlo, monospace" font-size="38" font-weight="700" fill="#ecebe4" letter-spacing="-1">marsh</text>
  <g font-family="'SF Pro Display', -apple-system, 'Helvetica Neue', Arial, sans-serif" font-weight="800" letter-spacing="-6">
    <text x="66" y="290" font-size="136" fill="#ecebe4">Bash, extended</text>
    <text x="66" y="430" font-size="136" fill="url(#hl)">for agents.</text>
  </g>
  <rect x="72" y="486" width="760" height="70" rx="14" fill="#070908" stroke="#2a312c" stroke-width="2"/>
  <text x="100" y="531" font-family="ui-monospace, 'SF Mono', Menlo, monospace" font-size="25" fill="#e4e6df" xml:space="preserve"><tspan fill="#6fd6e2">split</tspan> { <tspan fill="#d3a8ff">fix:</tspan> <tspan fill="#6fd6e2">claude</tspan> …, <tspan fill="#d3a8ff">review:</tspan> <tspan fill="#6fd6e2">codex</tspan> … } | <tspan fill="#6fd6e2">join</tspan></text>
  <text x="1128" y="531" text-anchor="end" font-family="ui-monospace, 'SF Mono', Menlo, monospace" font-size="30" font-weight="600" fill="#c5f467">runmar.sh</text>
  <text x="1128" y="108" text-anchor="end" font-family="-apple-system, 'Helvetica Neue', Arial, sans-serif" font-size="26" fill="#a3a89f">Parallel agents, still Bash</text>
</svg>
